<mxfile host="app.diagrams.net" modified="2021-09-15T02:15:02.881Z" agent="5.0 (Windows NT 10.0; Win64; x64) AppleWebKit/537.36 (KHTML, like Gecko) Chrome/93.0.4577.63 Safari/537.36" etag="gA3WpNllYHWkBuROb3Lb" version="15.2.1" type="github">
  <diagram id="7sMN9yKqJ5x7ONmpitVm" name="Page-1">
    <mxGraphModel dx="1185" dy="635" grid="1" gridSize="10" guides="1" tooltips="1" connect="1" arrows="1" fold="1" page="1" pageScale="1" pageWidth="827" pageHeight="1169" math="0" shadow="0">
      <root>
        <mxCell id="0" />
        <mxCell id="1" parent="0" />
        <mxCell id="vY36IQDm4pZRRcKSbro7-63" value="" style="rounded=0;whiteSpace=wrap;html=1;" parent="1" vertex="1">
          <mxGeometry y="50" width="880" height="540" as="geometry" />
        </mxCell>
        <mxCell id="vY36IQDm4pZRRcKSbro7-56" value="" style="rounded=0;whiteSpace=wrap;html=1;flipV=1;flipH=1;fillColor=#e1d5e7;strokeColor=#9673a6;" parent="1" vertex="1">
          <mxGeometry x="20" y="80" width="110" height="470" as="geometry" />
        </mxCell>
        <mxCell id="vY36IQDm4pZRRcKSbro7-1" value="接入网关(gateway)" style="rounded=0;whiteSpace=wrap;html=1;fillColor=#dae8fc;strokeColor=#6c8ebf;" parent="1" vertex="1">
          <mxGeometry x="142" y="80" width="570" height="60" as="geometry" />
        </mxCell>
        <mxCell id="vY36IQDm4pZRRcKSbro7-2" value="表单" style="rounded=0;whiteSpace=wrap;html=1;fillColor=#fff2cc;strokeColor=#d6b656;" parent="1" vertex="1">
          <mxGeometry x="162" y="180" width="101.5" height="48" as="geometry" />
        </mxCell>
        <mxCell id="vY36IQDm4pZRRcKSbro7-23" value="海报/邀约" style="rounded=0;whiteSpace=wrap;html=1;fillColor=#fff2cc;strokeColor=#d6b656;" parent="1" vertex="1">
          <mxGeometry x="302" y="180" width="101.5" height="48" as="geometry" />
        </mxCell>
        <mxCell id="vY36IQDm4pZRRcKSbro7-3" value="K8S容器平台(TCS底层)" style="rounded=0;whiteSpace=wrap;html=1;fillColor=#dae8fc;strokeColor=#6c8ebf;" parent="1" vertex="1">
          <mxGeometry x="142" y="490" width="570" height="60" as="geometry" />
        </mxCell>
        <mxCell id="vY36IQDm4pZRRcKSbro7-5" value="mysql" style="rounded=0;whiteSpace=wrap;html=1;fillColor=#d5e8d4;strokeColor=#82b366;" parent="1" vertex="1">
          <mxGeometry x="162" y="362" width="58" height="38" as="geometry" />
        </mxCell>
        <mxCell id="vY36IQDm4pZRRcKSbro7-6" value="redis" style="rounded=0;whiteSpace=wrap;html=1;fillColor=#d5e8d4;strokeColor=#82b366;" parent="1" vertex="1">
          <mxGeometry x="162" y="416" width="58" height="44" as="geometry" />
        </mxCell>
        <mxCell id="vY36IQDm4pZRRcKSbro7-7" value="mongodb" style="rounded=0;whiteSpace=wrap;html=1;fillColor=#d5e8d4;strokeColor=#82b366;" parent="1" vertex="1">
          <mxGeometry x="249" y="361" width="74" height="40" as="geometry" />
        </mxCell>
        <mxCell id="vY36IQDm4pZRRcKSbro7-8" value="flink" style="rounded=0;whiteSpace=wrap;html=1;fillColor=#d5e8d4;strokeColor=#82b366;" parent="1" vertex="1">
          <mxGeometry x="475" y="362" width="91" height="40" as="geometry" />
        </mxCell>
        <mxCell id="vY36IQDm4pZRRcKSbro7-9" value="" style="rounded=0;whiteSpace=wrap;html=1;fillColor=none;" parent="1" vertex="1">
          <mxGeometry x="143" y="331" width="290" height="140" as="geometry" />
        </mxCell>
        <mxCell id="vY36IQDm4pZRRcKSbro7-11" value="内容创建" style="rounded=0;whiteSpace=wrap;html=1;fillColor=#fff2cc;strokeColor=#d6b656;" parent="1" vertex="1">
          <mxGeometry x="162" y="250" width="101.5" height="53" as="geometry" />
        </mxCell>
        <mxCell id="vY36IQDm4pZRRcKSbro7-12" value="内容搜索" style="rounded=0;whiteSpace=wrap;html=1;fillColor=#fff2cc;strokeColor=#d6b656;" parent="1" vertex="1">
          <mxGeometry x="302" y="250" width="103" height="51.75" as="geometry" />
        </mxCell>
        <mxCell id="vY36IQDm4pZRRcKSbro7-13" value="内容审批" style="rounded=0;whiteSpace=wrap;html=1;fillColor=#fff2cc;strokeColor=#d6b656;" parent="1" vertex="1">
          <mxGeometry x="447" y="250" width="103" height="53" as="geometry" />
        </mxCell>
        <mxCell id="vY36IQDm4pZRRcKSbro7-16" value="kafka" style="rounded=0;whiteSpace=wrap;html=1;fillColor=#d5e8d4;strokeColor=#82b366;" parent="1" vertex="1">
          <mxGeometry x="249" y="416" width="75" height="44" as="geometry" />
        </mxCell>
        <mxCell id="vY36IQDm4pZRRcKSbro7-21" value="存储中间件" style="text;html=1;strokeColor=none;fillColor=none;align=center;verticalAlign=middle;whiteSpace=wrap;rounded=0;" parent="1" vertex="1">
          <mxGeometry x="150" y="330" width="70" height="30" as="geometry" />
        </mxCell>
        <mxCell id="vY36IQDm4pZRRcKSbro7-25" value="企微/公众号" style="rounded=0;whiteSpace=wrap;html=1;fillColor=#fff2cc;strokeColor=#d6b656;" parent="1" vertex="1">
          <mxGeometry x="442" y="180" width="108" height="48" as="geometry" />
        </mxCell>
        <mxCell id="vY36IQDm4pZRRcKSbro7-26" value="销售协同" style="rounded=0;whiteSpace=wrap;html=1;fillColor=#fff2cc;strokeColor=#d6b656;" parent="1" vertex="1">
          <mxGeometry x="582" y="180" width="110" height="48" as="geometry" />
        </mxCell>
        <mxCell id="vY36IQDm4pZRRcKSbro7-27" value="内容分享" style="rounded=0;whiteSpace=wrap;html=1;fillColor=#fff2cc;strokeColor=#d6b656;" parent="1" vertex="1">
          <mxGeometry x="582" y="250" width="110" height="51.75" as="geometry" />
        </mxCell>
        <mxCell id="vY36IQDm4pZRRcKSbro7-31" value="大数据套件TBDS" style="text;html=1;strokeColor=none;fillColor=none;align=center;verticalAlign=middle;whiteSpace=wrap;rounded=0;" parent="1" vertex="1">
          <mxGeometry x="451" y="335" width="110" height="20" as="geometry" />
        </mxCell>
        <mxCell id="vY36IQDm4pZRRcKSbro7-33" value="任务调度服务" style="rounded=0;whiteSpace=wrap;html=1;fillColor=#d5e8d4;strokeColor=#82b366;" parent="1" vertex="1">
          <mxGeometry x="475" y="418" width="91" height="40" as="geometry" />
        </mxCell>
        <mxCell id="vY36IQDm4pZRRcKSbro7-34" value="hadoop" style="rounded=0;whiteSpace=wrap;html=1;fillColor=#d5e8d4;strokeColor=#82b366;" parent="1" vertex="1">
          <mxGeometry x="600" y="418" width="100" height="40" as="geometry" />
        </mxCell>
        <mxCell id="vY36IQDm4pZRRcKSbro7-35" value="spark" style="rounded=0;whiteSpace=wrap;html=1;fillColor=#d5e8d4;strokeColor=#82b366;" parent="1" vertex="1">
          <mxGeometry x="600" y="362" width="100" height="40" as="geometry" />
        </mxCell>
        <mxCell id="vY36IQDm4pZRRcKSbro7-37" value="" style="rounded=0;whiteSpace=wrap;html=1;fillColor=none;" parent="1" vertex="1">
          <mxGeometry x="450" y="332" width="262" height="140" as="geometry" />
        </mxCell>
        <mxCell id="vY36IQDm4pZRRcKSbro7-43" value="" style="rounded=0;whiteSpace=wrap;html=1;fillColor=none;" parent="1" vertex="1">
          <mxGeometry x="142" y="160" width="570" height="160" as="geometry" />
        </mxCell>
        <mxCell id="vY36IQDm4pZRRcKSbro7-47" value="日志模块" style="rounded=0;whiteSpace=wrap;html=1;fillColor=none;" parent="1" vertex="1">
          <mxGeometry x="30" y="90" width="80" height="50" as="geometry" />
        </mxCell>
        <mxCell id="vY36IQDm4pZRRcKSbro7-48" value="监控模块" style="rounded=0;whiteSpace=wrap;html=1;fillColor=none;" parent="1" vertex="1">
          <mxGeometry x="30" y="150" width="80" height="50" as="geometry" />
        </mxCell>
        <mxCell id="vY36IQDm4pZRRcKSbro7-49" value="服务发现" style="rounded=0;whiteSpace=wrap;html=1;fillColor=none;" parent="1" vertex="1">
          <mxGeometry x="30" y="215" width="80" height="50" as="geometry" />
        </mxCell>
        <mxCell id="vY36IQDm4pZRRcKSbro7-50" value="CICD" style="rounded=0;whiteSpace=wrap;html=1;fillColor=none;" parent="1" vertex="1">
          <mxGeometry x="30" y="285" width="80" height="50" as="geometry" />
        </mxCell>
        <mxCell id="vY36IQDm4pZRRcKSbro7-51" value="代码扫描" style="rounded=0;whiteSpace=wrap;html=1;fillColor=none;" parent="1" vertex="1">
          <mxGeometry x="30" y="355" width="80" height="50" as="geometry" />
        </mxCell>
        <mxCell id="vY36IQDm4pZRRcKSbro7-52" value="mysync同步" style="rounded=0;whiteSpace=wrap;html=1;fillColor=none;" parent="1" vertex="1">
          <mxGeometry x="30" y="425" width="80" height="50" as="geometry" />
        </mxCell>
        <mxCell id="vY36IQDm4pZRRcKSbro7-53" value="工作流引擎" style="rounded=0;whiteSpace=wrap;html=1;fillColor=none;" parent="1" vertex="1">
          <mxGeometry x="30" y="495" width="80" height="50" as="geometry" />
        </mxCell>
        <mxCell id="vY36IQDm4pZRRcKSbro7-57" value="&lt;font style=&quot;font-size: 14px&quot;&gt;开放平台&lt;/font&gt;" style="rounded=0;whiteSpace=wrap;html=1;fillColor=#f8cecc;strokeColor=#b85450;" parent="1" vertex="1">
          <mxGeometry x="730" y="80" width="90" height="470" as="geometry" />
        </mxCell>
        <mxCell id="PxLwZvFllzFaB2zqQSId-3" value="clickhouse" style="rounded=0;whiteSpace=wrap;html=1;fillColor=#d5e8d4;strokeColor=#82b366;" vertex="1" parent="1">
          <mxGeometry x="355" y="418" width="69.75" height="42" as="geometry" />
        </mxCell>
        <mxCell id="PxLwZvFllzFaB2zqQSId-4" value="ES" style="rounded=0;whiteSpace=wrap;html=1;fillColor=#d5e8d4;strokeColor=#82b366;" vertex="1" parent="1">
          <mxGeometry x="355" y="362" width="69.75" height="39" as="geometry" />
        </mxCell>
      </root>
    </mxGraphModel>
  </diagram>
</mxfile>
